<svg width="105" height="105" viewBox="0 0 105 105" fill="none" xmlns="http://www.w3.org/2000/svg">
<rect width="104.686" height="104.686" fill="#F7F7FF"/>
<path d="M29.3014 80.0412C33.357 80.0412 36.6447 76.7535 36.6447 72.6978C36.6447 68.6422 33.357 65.3545 29.3014 65.3545C25.2457 65.3545 21.958 68.6422 21.958 72.6978C21.958 76.7535 25.2457 80.0412 29.3014 80.0412Z" fill="#7051EF"/>
<path d="M58.6746 65.3545H46.9252C46.1141 65.3545 45.4565 66.012 45.4565 66.8232V78.5725C45.4565 79.3837 46.1141 80.0412 46.9252 80.0412H58.6746C59.4857 80.0412 60.1432 79.3837 60.1432 78.5725V66.8232C60.1432 66.012 59.4857 65.3545 58.6746 65.3545Z" fill="#7051EF"/>
<path d="M83.1382 77.7252L77.7229 66.9074C77.5903 66.6413 77.3861 66.4174 77.1332 66.2609C76.8804 66.1044 76.5889 66.0215 76.2915 66.0215C75.9942 66.0215 75.7027 66.1044 75.4498 66.2609C75.197 66.4174 74.9928 66.6413 74.8601 66.9074L69.4512 77.7252C69.3289 77.9693 69.2711 78.2406 69.2833 78.5134C69.2956 78.7861 69.3774 79.0511 69.5211 79.2833C69.6647 79.5154 69.8654 79.707 70.104 79.8396C70.3426 79.9722 70.6112 80.0416 70.8842 80.0411H81.6989C81.9719 80.0416 82.2404 79.9722 82.4791 79.8396C82.7177 79.707 82.9184 79.5154 83.062 79.2833C83.2057 79.0511 83.2875 78.7861 83.2997 78.5134C83.3119 78.2406 83.2542 77.9693 83.1318 77.7252H83.1382Z" fill="#7051EF"/>
<path d="M29.3011 62.4173C30.0801 62.4173 30.8273 62.1078 31.3781 61.5569C31.929 61.0061 32.2385 60.2589 32.2385 59.4799V55.8082C32.2381 55.7117 32.2568 55.616 32.2936 55.5268C32.3303 55.4375 32.3844 55.3564 32.4527 55.2881C32.5209 55.2198 32.602 55.1658 32.6913 55.129C32.7806 55.0922 32.8762 55.0735 32.9728 55.0739H49.1282C49.3229 55.0739 49.5097 55.1513 49.6474 55.289C49.7851 55.4267 49.8625 55.6135 49.8625 55.8082V59.4799C49.8625 60.2589 50.172 61.0061 50.7228 61.5569C51.2737 62.1078 52.0208 62.4173 52.7998 62.4173C53.5789 62.4173 54.326 62.1078 54.8769 61.5569C55.4277 61.0061 55.7372 60.2589 55.7372 59.4799V55.8082C55.7368 55.7117 55.7555 55.616 55.7923 55.5268C55.8291 55.4375 55.8831 55.3564 55.9514 55.2881C56.0197 55.2198 56.1008 55.1658 56.19 55.129C56.2793 55.0922 56.375 55.0735 56.4715 55.0739H72.6269C72.8217 55.0739 73.0084 55.1513 73.1461 55.289C73.2839 55.4267 73.3612 55.6135 73.3612 55.8082V59.4799C73.3612 60.2589 73.6707 61.0061 74.2216 61.5569C74.7724 62.1078 75.5195 62.4173 76.2986 62.4173C77.0776 62.4173 77.8247 62.1078 78.3756 61.5569C78.9264 61.0061 79.2359 60.2589 79.2359 59.4799V53.6052C79.2359 52.4367 78.7717 51.316 77.9454 50.4897C77.1191 49.6634 75.9984 49.1992 74.8299 49.1992H30.7698C29.6012 49.1992 28.4805 49.6634 27.6543 50.4897C26.828 51.316 26.3638 52.4367 26.3638 53.6052V59.4799C26.3638 60.2589 26.6732 61.0061 27.2241 61.5569C27.775 62.1078 28.5221 62.4173 29.3011 62.4173V62.4173Z" fill="#7051EF"/>
<path d="M51.713 25.7323L43.0202 34.4251C42.4201 35.0252 42.4201 35.9982 43.0202 36.5983L51.713 45.2911C52.3131 45.8912 53.2861 45.8912 53.8862 45.2911L62.579 36.5983C63.1791 35.9982 63.1791 35.0252 62.579 34.4251L53.8862 25.7323C53.2861 25.1322 52.3131 25.1322 51.713 25.7323Z" fill="#7051EF"/>
</svg>
