<svg width="105" height="105" viewBox="0 0 105 105" fill="none" xmlns="http://www.w3.org/2000/svg">
<rect width="104.686" height="104.686" fill="#F7F7FF"/>
<path d="M38.6457 61.1805C38.7523 60.9986 38.7898 60.7843 38.7511 60.5769C38.7125 60.3696 38.6004 60.1831 38.4354 60.0518C35.9884 58.0794 32.9406 57.0033 29.7977 57.002C26.8375 57.0034 23.9544 57.9463 21.5654 59.6944C19.1764 61.4425 17.4053 63.9052 16.5083 66.7263C16.4672 66.8582 16.4576 66.9979 16.4801 67.1343C16.5026 67.2706 16.5567 67.3998 16.638 67.5115C16.7196 67.6204 16.8255 67.7087 16.9472 67.7696C17.0689 67.8304 17.203 67.8621 17.3391 67.8621H35.4872C35.6857 67.8624 35.8785 67.7952 36.0339 67.6717C36.1893 67.5481 36.2981 67.3755 36.3426 67.182L36.4512 66.6947C36.8954 64.755 37.6356 62.8951 38.6457 61.1805V61.1805Z" fill="#7051EF"/>
<path d="M74.8755 57.002C72.2387 57.0034 69.6583 57.7653 67.4437 59.1964C67.3457 59.2587 67.261 59.3398 67.1947 59.4352C67.1284 59.5306 67.0818 59.6382 67.0577 59.7519C67.0335 59.8655 67.0323 59.9828 67.054 60.0969C67.0758 60.211 67.1201 60.3196 67.1843 60.4163C68.4658 62.329 69.3887 64.4588 69.9081 66.7017L70.0168 67.189C70.0613 67.3825 70.1701 67.5551 70.3255 67.6787C70.4809 67.8022 70.6736 67.8694 70.8722 67.8691H87.3481C87.4842 67.8691 87.6184 67.8374 87.7401 67.7766C87.8617 67.7157 87.9676 67.6274 88.0492 67.5185C88.1305 67.4068 88.1846 67.2776 88.2071 67.1413C88.2296 67.0049 88.22 66.8652 88.1789 66.7333C87.2824 63.9086 85.5098 61.4428 83.1178 59.6931C80.7259 57.9434 77.839 57.0009 74.8755 57.002Z" fill="#7051EF"/>
<path d="M65.6332 67.8692C65.7713 67.8699 65.9076 67.8378 66.0309 67.7755C66.1542 67.7132 66.2609 67.6226 66.3424 67.511C66.4238 67.3995 66.4776 67.2702 66.4994 67.1338C66.5211 66.9974 66.5102 66.8578 66.4675 66.7264C65.5691 63.8909 63.7873 61.4172 61.3824 59.6669C58.9776 57.9165 56.0758 56.9814 53.1015 56.9983C50.1271 57.0151 47.2362 57.983 44.8513 59.7605C42.4664 61.5379 40.7127 64.0317 39.8465 66.8772C39.8115 66.9918 39.8038 67.1131 39.824 67.2312C39.8443 67.3494 39.8919 67.4612 39.9631 67.5576C40.0344 67.654 40.1272 67.7324 40.2341 67.7866C40.3411 67.8407 40.4593 67.869 40.5792 67.8692H65.6332Z" fill="#7051EF"/>
<path d="M29.7978 53.8963C34.514 53.8963 38.3372 50.0731 38.3372 45.3568C38.3372 40.6406 34.514 36.8174 29.7978 36.8174C25.0815 36.8174 21.2583 40.6406 21.2583 45.3568C21.2583 50.0731 25.0815 53.8963 29.7978 53.8963Z" fill="#7051EF"/>
<path d="M74.8754 53.8963C79.5916 53.8963 83.4149 50.0731 83.4149 45.3568C83.4149 40.6406 79.5916 36.8174 74.8754 36.8174C70.1592 36.8174 66.3359 40.6406 66.3359 45.3568C66.3359 50.0731 70.1592 53.8963 74.8754 53.8963Z" fill="#7051EF"/>
<path d="M57.9839 52.4128C59.6699 51.2626 60.8872 49.5458 61.4149 47.5743C61.9425 45.6028 61.7454 43.5074 60.8594 41.6689C59.9733 39.8304 58.4572 38.3707 56.5863 37.5551C54.7155 36.7395 52.6142 36.6221 50.6641 37.2242C48.7141 37.8263 47.0447 39.1079 45.9594 40.8363C44.874 42.5646 44.4447 44.625 44.7494 46.643C45.0541 48.661 46.0726 50.5028 47.6199 51.8336C49.1671 53.1645 51.1405 53.8961 53.1814 53.8956C54.8948 53.895 56.5684 53.3782 57.9839 52.4128V52.4128Z" fill="#7051EF"/>
</svg>
