<svg width="105" height="105" viewBox="0 0 105 105" fill="none" xmlns="http://www.w3.org/2000/svg">
<rect width="104.686" height="104.686" fill="#F7F7FF"/>
<path d="M57.0312 76.0928H47.6562C47.443 76.0928 47.2334 76.1473 47.0473 76.2511C46.8611 76.355 46.7046 76.5047 46.5926 76.6861C46.4807 76.8675 46.4169 77.0745 46.4075 77.2874C46.398 77.5004 46.4432 77.7122 46.5387 77.9028L47.3787 79.5803C47.7911 80.4115 48.4278 81.1107 49.2169 81.5989C50.0059 82.0871 50.9158 82.3447 51.8437 82.3428H52.8437C53.7706 82.3461 54.68 82.0904 55.4694 81.6045C56.2587 81.1186 56.8967 80.4218 57.3112 79.5928L58.1512 77.9153C58.2468 77.7245 58.292 77.5125 58.2824 77.2993C58.2729 77.0861 58.2089 76.879 58.0966 76.6975C57.9843 76.5161 57.8275 76.3664 57.641 76.2627C57.4545 76.1591 57.2446 76.1049 57.0312 76.1053V76.0928Z" fill="#7051EF"/>
<path d="M52.3437 33.5928C53.0068 33.5928 53.6427 33.3294 54.1115 32.8605C54.5804 32.3917 54.8437 31.7558 54.8437 31.0928V24.8428C54.8437 24.1797 54.5804 23.5438 54.1115 23.075C53.6427 22.6062 53.0068 22.3428 52.3437 22.3428C51.6807 22.3428 51.0448 22.6062 50.576 23.075C50.1071 23.5438 49.8438 24.1797 49.8438 24.8428V31.0928C49.8438 31.7558 50.1071 32.3917 50.576 32.8605C51.0448 33.3294 51.6807 33.5928 52.3437 33.5928Z" fill="#7051EF"/>
<path d="M75.3236 31.8628C74.8548 31.3941 74.219 31.1309 73.5561 31.1309C72.8932 31.1309 72.2574 31.3941 71.7886 31.8628L67.3711 36.2828C67.1324 36.5134 66.9419 36.7893 66.8109 37.0943C66.6799 37.3993 66.6109 37.7274 66.608 38.0593C66.6051 38.3913 66.6684 38.7205 66.7941 39.0277C66.9198 39.3349 67.1054 39.6141 67.3401 39.8488C67.5749 40.0835 67.854 40.2692 68.1612 40.3949C68.4685 40.5206 68.7977 40.5838 69.1296 40.5809C69.4616 40.5781 69.7896 40.5091 70.0946 40.3781C70.3997 40.2471 70.6755 40.0566 70.9061 39.8178L75.3236 35.3978C75.7923 34.929 76.0556 34.2932 76.0556 33.6303C76.0556 32.9674 75.7923 32.3316 75.3236 31.8628V31.8628Z" fill="#7051EF"/>
<path d="M79.8433 52.3428H74.8433C74.1802 52.3428 73.5443 52.6062 73.0755 53.075C72.6067 53.5438 72.3433 54.1797 72.3433 54.8428C72.3433 55.5058 72.6067 56.1417 73.0755 56.6105C73.5443 57.0794 74.1802 57.3428 74.8433 57.3428H79.8433C80.5063 57.3428 81.1422 57.0794 81.611 56.6105C82.0799 56.1417 82.3433 55.5058 82.3433 54.8428C82.3433 54.1797 82.0799 53.5438 81.611 53.075C81.1422 52.6062 80.5063 52.3428 79.8433 52.3428Z" fill="#7051EF"/>
<path d="M37.3189 36.2829L32.8989 31.8629C32.4274 31.4075 31.7959 31.1555 31.1404 31.1612C30.4849 31.1669 29.8579 31.4298 29.3943 31.8934C28.9308 32.3569 28.6679 32.9839 28.6622 33.6394C28.6565 34.2949 28.9085 34.9264 29.3639 35.3979L33.7839 39.8179C34.2554 40.2733 34.8869 40.5253 35.5424 40.5196C36.1979 40.5139 36.8249 40.251 37.2884 39.7875C37.752 39.3239 38.0149 38.6969 38.0206 38.0414C38.0263 37.3859 37.7743 36.7544 37.3189 36.2829Z" fill="#7051EF"/>
<path d="M29.8437 52.3428H24.8437C24.1807 52.3428 23.5448 52.6062 23.076 53.075C22.6071 53.5438 22.3438 54.1797 22.3438 54.8428C22.3438 55.5058 22.6071 56.1417 23.076 56.6105C23.5448 57.0794 24.1807 57.3428 24.8437 57.3428H29.8437C30.5068 57.3428 31.1427 57.0794 31.6115 56.6105C32.0804 56.1417 32.3437 55.5058 32.3437 54.8428C32.3437 54.1797 32.0804 53.5438 31.6115 53.075C31.1427 52.6062 30.5068 52.3428 29.8437 52.3428Z" fill="#7051EF"/>
<path d="M52.3436 37.3428C48.8888 37.3479 45.5256 38.454 42.7421 40.5004C39.9586 42.5468 37.8998 45.427 36.8645 48.723C35.8292 52.019 35.8713 55.5592 36.9847 58.8297C38.098 62.1001 40.2247 64.9306 43.0561 66.9103C43.222 67.0254 43.3576 67.179 43.4512 67.3579C43.5448 67.5369 43.5936 67.7358 43.5936 67.9378V69.8428C43.5936 70.5058 43.8569 71.1417 44.3258 71.6105C44.7946 72.0794 45.4305 72.3428 46.0936 72.3428H58.5936C59.2566 72.3428 59.8925 72.0794 60.3613 71.6105C60.8302 71.1417 61.0936 70.5058 61.0936 69.8428V67.9353C61.0935 67.7333 61.1423 67.5344 61.2359 67.3554C61.3296 67.1765 61.4651 67.0229 61.6311 66.9078C64.4695 64.9323 66.6031 62.1022 67.7211 58.8297C68.8392 55.5572 68.8831 52.0132 67.8467 48.7139C66.8103 45.4146 64.7476 42.5325 61.959 40.4871C59.1705 38.4418 55.8018 37.3402 52.3436 37.3428V37.3428Z" fill="#7051EF"/>
</svg>
