<svg width="105" height="105" viewBox="0 0 105 105" fill="none" xmlns="http://www.w3.org/2000/svg">
<rect x="0.000488281" width="104.686" height="104.686" fill="#F7F7FF"/>
<path d="M82.5938 49.5928H76.9315C76.3012 44.0174 73.7981 38.8208 69.8313 34.8525C65.8646 30.8843 60.6689 28.3792 55.0938 27.7468V22.0928C55.0938 21.3634 54.804 20.664 54.2883 20.1482C53.7726 19.6325 53.0731 19.3428 52.3438 19.3428C51.6144 19.3428 50.9149 19.6325 50.3992 20.1482C49.8835 20.664 49.5938 21.3634 49.5938 22.0928V27.7468C44.0186 28.3792 38.8229 30.8843 34.8562 34.8525C30.8894 38.8208 28.3863 44.0174 27.756 49.5928H22.0938C21.3644 49.5928 20.6649 49.8825 20.1492 50.3982C19.6335 50.914 19.3438 51.6134 19.3438 52.3428C19.3438 53.0721 19.6335 53.7716 20.1492 54.2873C20.6649 54.803 21.3644 55.0928 22.0938 55.0928H27.756C28.3887 60.6659 30.893 65.8596 34.8596 69.8252C38.8262 73.7907 44.0205 76.2937 49.5938 76.925V82.5928C49.5938 83.3221 49.8835 84.0216 50.3992 84.5373C50.9149 85.053 51.6144 85.3428 52.3438 85.3428C53.0731 85.3428 53.7726 85.053 54.2883 84.5373C54.804 84.0216 55.0938 83.3221 55.0938 82.5928V76.925C60.667 76.2937 65.8613 73.7907 69.8279 69.8252C73.7945 65.8596 76.2988 60.6659 76.9315 55.0928H82.5938C83.3231 55.0928 84.0226 54.803 84.5383 54.2873C85.054 53.7716 85.3438 53.0721 85.3438 52.3428C85.3438 51.6134 85.054 50.914 84.5383 50.3982C84.0226 49.8825 83.3231 49.5928 82.5938 49.5928ZM71.239 48.7678C71.2589 48.8678 71.2564 48.9711 71.2316 49.0701C71.2069 49.169 71.1605 49.2613 71.0958 49.3402C71.0311 49.4191 70.9497 49.4827 70.8575 49.5263C70.7653 49.57 70.6645 49.5927 70.5625 49.5928H64.9222C64.7715 49.5932 64.6248 49.5438 64.505 49.4523C64.3851 49.3608 64.2989 49.2323 64.2595 49.0868C63.6899 47.0168 62.5923 45.1304 61.0742 43.6123C59.5561 42.0942 57.6697 40.9966 55.5998 40.427C55.4538 40.3866 55.3251 40.2993 55.2337 40.1785C55.1423 40.0577 55.0931 39.9102 55.0938 39.7588V34.1185C55.0938 34.0165 55.1165 33.9157 55.1602 33.8235C55.2039 33.7313 55.2674 33.6499 55.3463 33.5852C55.4252 33.5205 55.5175 33.4741 55.6165 33.4494C55.7154 33.4246 55.8187 33.4221 55.9188 33.442C59.7146 34.1662 63.205 36.0147 65.9369 38.7477C68.6689 41.4806 70.5162 44.9717 71.239 48.7678V48.7678ZM52.3438 59.2178C50.984 59.2178 49.6548 58.8146 48.5242 58.0591C47.3936 57.3037 46.5124 56.23 45.9921 54.9737C45.4717 53.7175 45.3356 52.3351 45.6009 51.0015C45.8661 49.6679 46.5209 48.4429 47.4824 47.4814C48.4439 46.5199 49.6689 45.8651 51.0025 45.5999C52.3361 45.3346 53.7185 45.4707 54.9747 45.9911C56.2309 46.5115 57.3047 47.3926 58.0601 48.5232C58.8155 49.6538 59.2188 50.983 59.2188 52.3428C59.2188 54.1661 58.4944 55.9148 57.2051 57.2041C55.9158 58.4934 54.1671 59.2178 52.3438 59.2178V59.2178ZM48.7687 33.442C48.8688 33.4221 48.9721 33.4246 49.071 33.4494C49.17 33.4741 49.2623 33.5205 49.3412 33.5852C49.4201 33.6499 49.4836 33.7313 49.5273 33.8235C49.571 33.9157 49.5937 34.0165 49.5938 34.1185V39.7588C49.5941 39.9095 49.5447 40.0562 49.4533 40.176C49.3618 40.2959 49.2333 40.3822 49.0877 40.4215C47.0178 40.9911 45.1314 42.0887 43.6133 43.6068C42.0952 45.1249 40.9976 47.0113 40.428 49.0813C40.3888 49.2274 40.3028 49.3566 40.183 49.449C40.0633 49.5414 39.9165 49.5919 39.7653 49.5928H34.125C34.023 49.5927 33.9222 49.57 33.83 49.5263C33.7378 49.4827 33.6564 49.4191 33.5917 49.3402C33.527 49.2613 33.4806 49.169 33.4559 49.0701C33.4311 48.9711 33.4286 48.8678 33.4485 48.7678C34.1713 44.9717 36.0186 41.4806 38.7506 38.7477C41.4825 36.0147 44.9729 34.1662 48.7687 33.442ZM33.4485 55.9013C33.4281 55.8011 33.4302 55.6977 33.4548 55.5985C33.4793 55.4993 33.5257 55.4069 33.5905 55.3278C33.6553 55.2488 33.7369 55.1852 33.8293 55.1417C33.9218 55.0982 34.0228 55.0758 34.125 55.0763H39.7653C39.916 55.0759 40.0627 55.1253 40.1825 55.2168C40.3024 55.3083 40.3886 55.4367 40.428 55.5823C40.9976 57.6522 42.0952 59.5387 43.6133 61.0567C45.1314 62.5748 47.0178 63.6724 49.0877 64.242C49.2331 64.2818 49.3613 64.3682 49.4527 64.4879C49.5441 64.6077 49.5937 64.7541 49.5938 64.9048V70.545C49.594 70.6461 49.5716 70.746 49.5283 70.8373C49.485 70.9287 49.4219 71.0092 49.3435 71.073C49.2657 71.1378 49.1747 71.1847 49.0768 71.2103C48.9789 71.236 48.8765 71.2398 48.777 71.2215C44.9804 70.4992 41.4887 68.6521 38.7553 65.9201C36.0218 63.1882 34.1729 59.6974 33.4485 55.9013V55.9013ZM55.9188 71.2325C55.8192 71.2508 55.7169 71.247 55.619 71.2213C55.5211 71.1957 55.43 71.1488 55.3522 71.084C55.2724 71.021 55.2077 70.9408 55.1629 70.8494C55.1182 70.758 55.0945 70.6578 55.0938 70.556V64.9158C55.0934 64.765 55.1428 64.6183 55.2342 64.4985C55.3257 64.3787 55.4542 64.2924 55.5998 64.253C57.6697 63.6834 59.5561 62.5858 61.0742 61.0677C62.5923 59.5497 63.6899 57.6632 64.2595 55.5933C64.2999 55.4488 64.3866 55.3215 64.5063 55.2311C64.6261 55.1407 64.7722 55.0921 64.9222 55.0928H70.5625C70.6649 55.0918 70.7661 55.1139 70.8588 55.1572C70.9515 55.2006 71.0334 55.2642 71.0983 55.3433C71.1632 55.4225 71.2095 55.5151 71.2339 55.6146C71.2582 55.714 71.26 55.8176 71.239 55.9178C70.5142 59.7118 68.666 63.2005 65.9342 65.9314C63.2024 68.6622 59.7131 70.5091 55.9188 71.2325V71.2325Z" fill="#7051EF"/>
</svg>
